<svg height="511pt" viewBox="0 -15 511.99993 511" width="511pt" xmlns="http://www.w3.org/2000/svg"><path d="m290.140625 464.945312 210.84375-243.589843c12.042969-13.910157 14.4375-33.734375 6.0625-50.113281l-74.746094-146.140626c-7.722656-15.097656-23.246093-24.59375-40.203125-24.59375h-272.195312c-16.957032 0-32.480469 9.496094-40.203125 24.59375l-74.746094 146.140626c-8.378906 16.378906-5.980469 36.203124 6.0625 50.113281l210.84375 243.589843c18.007813 20.804688 50.273437 20.804688 68.28125 0zm0 0" fill="#30ceb3"/><path d="m507.050781 171.234375c4.367188 8.546875 5.800781 18.027344 4.472657 27.105469h-151.125l57-190.066406v-.011719c6.195312 4.179687 11.359374 9.917969 14.902343 16.835937zm0 0" fill="#1fb598"/><path d="m151.609375 198.339844 95.996094 281.410156c-9.613281-1.804688-18.757813-6.75-25.746094-14.816406l-210.839844-243.585938c-5.769531-6.65625-9.320312-14.667968-10.535156-23.007812zm0 0" fill="#5eeacf"/><path d="m360.390625 198.339844-95.984375 281.410156v.011719c-5.550781 1.035156-11.253906 1.035156-16.800781 0v-.011719l-95.996094-281.410156zm0 0" fill="#1fb598"/><path d="m417.398438 8.261719v.011719l-57 190.066406-104.394532-197.839844h136.097656c9.183594 0 17.960938 2.789062 25.296876 7.761719zm0 0" fill="#5eeacf"/><path d="m256.003906.5-104.394531 197.839844-57-190.066406v-.011719c7.335937-4.972657 16.101563-7.761719 25.296875-7.761719zm0 0" fill="#1fb598"/></svg>