<svg xmlns="http://www.w3.org/2000/svg" height="512pt" version="1.1" viewBox="0 -84 512.00015 512" width="512pt">
<g id="surface1">
<path d="M 382.019531 103.972656 L 349.277344 51.347656 C 348.925781 50.664062 348.523438 50.003906 348.054688 49.378906 L 348.050781 49.375 C 346.921875 47.859375 345.460938 46.53125 343.660156 45.492188 L 275.867188 6.351562 C 262.414062 -1.414062 245.839844 -1.414062 232.386719 6.351562 L 41.320312 116.835938 C 38.703125 118.347656 36.800781 120.476562 35.601562 122.882812 C 35.425781 123.234375 35.261719 123.589844 35.117188 123.953125 L 2.4375 196.050781 C -1.988281 202.652344 -0.390625 212.277344 7.242188 216.683594 L 91.785156 265.496094 C 105.238281 273.261719 121.8125 273.261719 135.265625 265.496094 L 377.734375 125.332031 C 385.652344 120.761719 387.078125 110.574219 382.019531 103.972656 Z M 382.019531 103.972656 " style=" stroke:none;fill-rule:nonzero;fill:rgb(78.823529%,67.058824%,0%);fill-opacity:1;" />
<path d="M 152.59375 181.082031 L 109.113281 181.082031 L 74.519531 255.527344 L 91.785156 265.492188 C 105.238281 273.261719 121.8125 273.261719 135.265625 265.492188 L 168.144531 246.488281 Z M 152.59375 181.082031 " style=" stroke:none;fill-rule:nonzero;fill:rgb(82.745098%,73.333333%,20%);fill-opacity:1;" />
<path d="M 109.113281 181.082031 L 41.320312 141.941406 C 31.65625 136.363281 31.65625 122.417969 41.320312 116.835938 L 232.382812 6.351562 C 245.835938 -1.414062 262.410156 -1.414062 275.863281 6.351562 L 343.65625 45.492188 C 353.320312 51.070312 353.320312 65.015625 343.65625 70.59375 L 152.59375 181.082031 C 139.140625 188.847656 122.566406 188.847656 109.113281 181.082031 Z M 109.113281 181.082031 " style=" stroke:none;fill-rule:nonzero;fill:rgb(100%,84.705882%,0%);fill-opacity:1;" />
<path d="M 101.613281 176.75 L 64.160156 249.546875 L 30.683594 230.21875 L 66.148438 156.277344 Z M 101.613281 176.75 " style=" stroke:none;fill-rule:nonzero;fill:rgb(82.745098%,73.333333%,20%);fill-opacity:1;" />
<path d="M 57.601562 151.554688 L 20.136719 224.339844 L 7.242188 216.683594 L 44.582031 143.824219 Z M 57.601562 151.554688 " style=" stroke:none;fill-rule:nonzero;fill:rgb(82.745098%,73.333333%,20%);fill-opacity:1;" />
<path d="M 343.65625 70.59375 L 377.734375 125.332031 L 348.683594 142.125 L 313.957031 87.773438 Z M 343.65625 70.59375 " style=" stroke:none;fill-rule:nonzero;fill:rgb(82.745098%,73.333333%,20%);fill-opacity:1;" />
<path d="M 226.742188 138.257812 L 260.816406 192.992188 L 247.324219 200.746094 L 212.59375 146.390625 Z M 226.742188 138.257812 " style=" stroke:none;fill-rule:nonzero;fill:rgb(82.745098%,73.333333%,20%);fill-opacity:1;" />
<path d="M 304.523438 93.234375 L 338.601562 147.96875 L 274.820312 184.648438 L 240.09375 130.296875 Z M 304.523438 93.234375 " style=" stroke:none;fill-rule:nonzero;fill:rgb(82.745098%,73.333333%,20%);fill-opacity:1;" />
<path d="M 343.65625 70.59375 C 343.667969 70.589844 343.675781 70.582031 343.683594 70.574219 L 104.144531 80.503906 L 41.320312 116.835938 C 36.25 119.765625 33.863281 125 34.117188 130.117188 L 256.679688 120.894531 Z M 343.65625 70.59375 " style=" stroke:none;fill-rule:nonzero;fill:rgb(100%,90.980392%,40%);fill-opacity:1;" />
<path d="M 178.925781 165.855469 L 227.058594 138.023438 L 47.429688 145.46875 L 89.183594 169.574219 Z M 178.925781 165.855469 " style=" stroke:none;fill-rule:nonzero;fill:rgb(100%,90.980392%,40%);fill-opacity:1;" />
<path d="M 136.25 61.941406 L 350.019531 53.078125 C 348.929688 50.046875 346.820312 47.316406 343.65625 45.492188 L 314.589844 28.710938 L 184.382812 34.105469 Z M 136.25 61.941406 " style=" stroke:none;fill-rule:nonzero;fill:rgb(100%,90.980392%,40%);fill-opacity:1;" />
<path d="M 288.894531 13.875 L 275.863281 6.351562 C 262.410156 -1.414062 245.835938 -1.414062 232.382812 6.351562 L 214.007812 16.976562 Z M 288.894531 13.875 " style=" stroke:none;fill-rule:nonzero;fill:rgb(100%,90.980392%,40%);fill-opacity:1;" />
<path d="M 509.042969 177.609375 L 476.300781 124.980469 C 475.945312 124.300781 475.542969 123.640625 475.074219 123.011719 L 475.074219 123.007812 L 475.070312 123.007812 C 473.941406 121.496094 472.480469 120.167969 470.679688 119.128906 L 402.886719 79.984375 C 389.433594 72.21875 372.859375 72.21875 359.402344 79.984375 L 168.339844 190.472656 C 165.722656 191.984375 163.820312 194.109375 162.625 196.515625 L 162.621094 196.519531 C 162.445312 196.867188 162.28125 197.222656 162.136719 197.585938 L 129.460938 269.683594 C 125.03125 276.285156 126.632812 285.910156 134.265625 290.320312 L 218.808594 339.128906 C 232.261719 346.898438 248.835938 346.898438 262.289062 339.128906 L 504.757812 198.964844 C 512.671875 194.394531 514.097656 184.210938 509.042969 177.609375 Z M 509.042969 177.609375 " style=" stroke:none;fill-rule:nonzero;fill:rgb(78.823529%,67.058824%,0%);fill-opacity:1;" />
<path d="M 279.617188 254.71875 L 236.132812 254.71875 L 201.542969 329.160156 L 218.808594 339.132812 C 232.261719 346.898438 248.835938 346.898438 262.289062 339.132812 L 295.167969 320.125 Z M 279.617188 254.71875 " style=" stroke:none;fill-rule:nonzero;fill:rgb(82.745098%,73.333333%,20%);fill-opacity:1;" />
<path d="M 236.136719 254.71875 L 168.34375 215.574219 C 158.679688 209.996094 158.679688 196.050781 168.34375 190.472656 L 359.40625 79.984375 C 372.859375 72.21875 389.433594 72.21875 402.886719 79.984375 L 470.679688 119.128906 C 480.34375 124.707031 480.34375 138.652344 470.679688 144.230469 L 279.617188 254.71875 C 266.164062 262.484375 249.589844 262.484375 236.136719 254.71875 Z M 236.136719 254.71875 " style=" stroke:none;fill-rule:nonzero;fill:rgb(100%,84.705882%,0%);fill-opacity:1;" />
<path d="M 228.632812 250.386719 L 191.179688 323.179688 L 157.707031 303.855469 L 193.171875 229.910156 Z M 228.632812 250.386719 " style=" stroke:none;fill-rule:nonzero;fill:rgb(82.745098%,73.333333%,20%);fill-opacity:1;" />
<path d="M 184.625 225.191406 L 147.15625 297.976562 L 134.265625 290.320312 L 171.601562 217.460938 Z M 184.625 225.191406 " style=" stroke:none;fill-rule:nonzero;fill:rgb(82.745098%,73.333333%,20%);fill-opacity:1;" />
<path d="M 470.679688 144.230469 L 504.757812 198.964844 L 475.707031 215.761719 L 440.976562 161.40625 Z M 470.679688 144.230469 " style=" stroke:none;fill-rule:nonzero;fill:rgb(82.745098%,73.333333%,20%);fill-opacity:1;" />
<path d="M 353.761719 211.890625 L 387.839844 266.628906 L 374.347656 274.378906 L 339.617188 220.027344 Z M 353.761719 211.890625 " style=" stroke:none;fill-rule:nonzero;fill:rgb(82.745098%,73.333333%,20%);fill-opacity:1;" />
<path d="M 431.546875 166.867188 L 465.625 221.605469 L 401.84375 258.285156 L 367.113281 203.933594 Z M 431.546875 166.867188 " style=" stroke:none;fill-rule:nonzero;fill:rgb(82.745098%,73.333333%,20%);fill-opacity:1;" />
<path d="M 470.679688 144.230469 C 470.6875 144.226562 470.695312 144.21875 470.707031 144.210938 L 231.167969 154.140625 L 168.339844 190.472656 C 163.269531 193.402344 160.886719 198.632812 161.136719 203.753906 L 383.699219 194.527344 Z M 470.679688 144.230469 " style=" stroke:none;fill-rule:nonzero;fill:rgb(100%,90.980392%,40%);fill-opacity:1;" />
<path d="M 305.945312 239.492188 L 354.082031 211.65625 L 174.449219 219.101562 L 216.207031 243.210938 Z M 305.945312 239.492188 " style=" stroke:none;fill-rule:nonzero;fill:rgb(100%,90.980392%,40%);fill-opacity:1;" />
<path d="M 263.273438 135.574219 L 477.042969 126.714844 C 475.949219 123.683594 473.84375 120.953125 470.679688 119.125 L 441.613281 102.34375 L 311.40625 107.742188 Z M 263.273438 135.574219 " style=" stroke:none;fill-rule:nonzero;fill:rgb(100%,90.980392%,40%);fill-opacity:1;" />
<path d="M 415.914062 87.507812 L 402.886719 79.984375 C 389.433594 72.21875 372.859375 72.21875 359.402344 79.984375 L 341.027344 90.613281 Z M 415.914062 87.507812 " style=" stroke:none;fill-rule:nonzero;fill:rgb(100%,90.980392%,40%);fill-opacity:1;" />
<path d="M 411.953125 87.546875 L 411.96875 87.539062 L 411.890625 87.410156 C 411.574219 86.800781 383.03125 40.925781 382.664062 40.433594 L 382.65625 40.425781 C 381.722656 39.175781 380.511719 38.074219 379.023438 37.214844 L 322.914062 4.820312 C 311.78125 -1.605469 298.0625 -1.605469 286.929688 4.820312 L 128.800781 96.261719 C 126.640625 97.507812 125.082031 99.273438 124.089844 101.257812 L 124.070312 101.265625 L 96.625 161.820312 L 96.640625 161.824219 C 92.976562 167.289062 94.28125 175.25 100.597656 178.894531 L 170.566406 219.292969 C 181.703125 225.71875 195.421875 225.71875 206.554688 219.292969 L 407.222656 103.289062 C 413.046875 99.929688 414.609375 92.902344 411.953125 87.546875 Z M 411.953125 87.546875 " style=" stroke:none;fill-rule:nonzero;fill:rgb(78.823529%,67.058824%,0%);fill-opacity:1;" />
<path d="M 220.894531 149.429688 L 184.910156 149.429688 L 156.28125 211.042969 L 170.570312 219.292969 C 181.703125 225.722656 195.421875 225.722656 206.554688 219.292969 L 233.765625 203.5625 Z M 220.894531 149.429688 " style=" stroke:none;fill-rule:nonzero;fill:rgb(82.745098%,73.333333%,20%);fill-opacity:1;" />
<path d="M 184.910156 149.429688 L 128.804688 117.039062 C 120.804688 112.421875 120.804688 100.878906 128.804688 96.261719 L 286.929688 4.820312 C 298.0625 -1.605469 311.78125 -1.605469 322.917969 4.820312 L 379.023438 37.214844 C 387.019531 41.832031 387.019531 53.375 379.023438 57.992188 L 220.894531 149.429688 C 209.761719 155.859375 196.042969 155.859375 184.910156 149.429688 Z M 184.910156 149.429688 " style=" stroke:none;fill-rule:nonzero;fill:rgb(100%,84.705882%,0%);fill-opacity:1;" />
<path d="M 178.703125 145.847656 L 147.707031 206.09375 L 120 190.097656 L 149.351562 128.902344 Z M 178.703125 145.847656 " style=" stroke:none;fill-rule:nonzero;fill:rgb(82.745098%,73.333333%,20%);fill-opacity:1;" />
<path d="M 142.277344 124.996094 L 111.269531 185.234375 L 100.601562 178.894531 L 131.503906 118.597656 Z M 142.277344 124.996094 " style=" stroke:none;fill-rule:nonzero;fill:rgb(82.745098%,73.333333%,20%);fill-opacity:1;" />
<path d="M 379.023438 57.992188 L 407.226562 103.292969 L 383.183594 117.1875 L 354.441406 72.207031 Z M 379.023438 57.992188 " style=" stroke:none;fill-rule:nonzero;fill:rgb(82.745098%,73.333333%,20%);fill-opacity:1;" />
<path d="M 282.261719 113.988281 L 310.464844 159.289062 L 299.296875 165.703125 L 270.554688 120.722656 Z M 282.261719 113.988281 " style=" stroke:none;fill-rule:nonzero;fill:rgb(82.745098%,73.333333%,20%);fill-opacity:1;" />
<path d="M 346.636719 76.726562 L 374.839844 122.027344 L 322.054688 152.386719 L 293.3125 107.402344 Z M 346.636719 76.726562 " style=" stroke:none;fill-rule:nonzero;fill:rgb(82.745098%,73.333333%,20%);fill-opacity:1;" />
<path d="M 379.023438 57.992188 C 379.03125 57.984375 379.039062 57.980469 379.046875 57.976562 L 180.796875 66.195312 L 128.800781 96.261719 C 124.605469 98.683594 122.632812 103.015625 122.84375 107.253906 L 307.039062 99.617188 Z M 379.023438 57.992188 " style=" stroke:none;fill-rule:nonzero;fill:rgb(100%,90.980392%,40%);fill-opacity:1;" />
<path d="M 242.6875 136.828125 L 282.523438 113.792969 L 133.859375 119.957031 L 168.417969 139.910156 Z M 242.6875 136.828125 " style=" stroke:none;fill-rule:nonzero;fill:rgb(100%,90.980392%,40%);fill-opacity:1;" />
<path d="M 207.371094 50.828125 L 384.289062 43.496094 C 383.386719 40.984375 381.640625 38.726562 379.023438 37.214844 L 354.96875 23.324219 L 247.207031 27.792969 Z M 207.371094 50.828125 " style=" stroke:none;fill-rule:nonzero;fill:rgb(100%,90.980392%,40%);fill-opacity:1;" />
<path d="M 333.699219 11.046875 L 322.914062 4.820312 C 311.78125 -1.605469 298.0625 -1.605469 286.929688 4.820312 L 271.71875 13.617188 Z M 333.699219 11.046875 " style=" stroke:none;fill-rule:nonzero;fill:rgb(100%,90.980392%,40%);fill-opacity:1;" />
</g>
</svg>